<svg width="80" height="65" viewBox="0 0 80 65" fill="none" xmlns="http://www.w3.org/2000/svg">
<path d="M15.2374 0.0952911C8.0429 1.07934 2.5322 7.70529 0.585969 17.7426C0.148612 20.0606 0.192348 20.5198 0.870251 20.4105C1.26387 20.3449 1.39508 19.995 1.81057 17.9832C3.25384 11.0729 6.206 5.9996 10.339 3.24425C11.5636 2.43514 13.6848 1.56043 13.9035 1.75724C13.9691 1.84472 14.0347 5.3217 14.0347 9.47658C14.0347 16.4962 14.0784 17.2178 14.5158 19.0328C15.4124 22.7722 16.7463 25.8337 18.7363 28.7859C21.8196 33.3344 22.9786 38.189 23.5472 49.1011C23.744 52.8405 24.1813 56.7329 24.5531 57.8919C24.6624 58.2418 24.5094 58.2856 23.1754 58.2856C19.1955 58.2637 14.9642 55.681 11.274 51.8268C7.58379 47.9726 5.315 43.8723 5.20567 43.8723C4.79018 43.8723 3.64726 41.2482 4.46763 44.6924C5.28799 48.1366 12.6789 55.4865 14.472 56.6455C20.4638 60.5817 26.2369 60.5379 31.5071 56.558C32.3162 55.9238 33.0159 55.4427 33.0378 55.4865C33.0597 55.5302 33.2784 55.9894 33.5189 56.5361C34.2405 58.045 35.8806 60.1225 37.149 61.1502C38.5922 62.3092 41.3913 63.6213 43.1189 63.9712C44.912 64.343 48.4546 64.2992 50.5102 63.8619C56.2177 62.681 61.7065 59.5758 66.8455 54.6336C73.7776 47.964 77.8231 40.5289 79.3539 31.7162C79.7037 29.6387 79.7693 28.5453 79.6819 26.4679C79.4413 21.482 78.1511 18.2018 75.2646 15.3153C72.2906 12.3194 69.4696 11.226 64.6587 11.226C59.1917 11.2041 53.3093 13.1941 47.8642 16.8679C45.087 18.7485 43.7968 19.8638 41.2164 22.4661L39.0952 24.631L38.8547 23.6907C36.8647 15.7745 32.4255 8.18638 27.4178 4.14083C23.6128 1.10121 19.0643 -0.407669 15.2374 0.0952911ZM21.0324 1.97592C25.3841 3.41919 28.9704 6.5463 32.4474 11.8383C35.8588 17.0647 37.805 22.8378 38.6578 30.0542C38.964 32.8533 38.8109 38.4296 38.3298 41.01C36.7553 49.6696 32.6005 55.7052 26.8492 57.7389C26.3681 57.8919 25.9089 57.9575 25.8652 57.8701C25.559 57.389 25.0561 53.1685 24.8592 49.6478C24.1813 37.7954 23.1317 33.2906 19.8297 28.1954C17.4242 24.4779 16.0028 20.8479 15.478 17.0866C15.2155 15.1841 15.1499 1.60416 15.4124 1.34175C15.7404 0.991867 19.3048 1.38549 21.0324 1.97592ZM67.8514 12.6912C68.7917 12.8661 70.3006 13.3691 71.1753 13.7845L72.7935 14.5499L72.3124 15.359C72.0281 15.8182 70.8254 18.005 69.6227 20.2355C68.42 22.4661 66.9329 25.0683 66.3206 26.0305C63.8496 29.7918 60.8756 32.5909 56.9393 34.8214C52.9813 37.03 52.1284 37.6423 50.4227 39.4355C47.9954 41.994 46.5521 44.312 42.9877 51.3316C40.1449 56.9516 38.2861 60.035 37.7831 60.035C37.1052 60.035 34.0437 55.4646 34.0437 54.4587C34.0437 54.2619 34.328 53.7152 34.656 53.2778C37.0834 50.1726 38.9203 45.3835 39.7512 40.0259C40.123 37.6642 40.123 31.3663 39.7512 28.5891L39.467 26.3585L40.0793 25.5276C41.1508 24.128 44.5622 20.826 46.3991 19.4483C53.528 14.0251 61.5972 11.4884 67.8514 12.6912ZM76.7735 19.4264C78.0855 22.1381 78.3261 23.4064 78.3261 27.4519C78.3261 31.4756 78.0637 33.1157 76.7735 37.0738C73.3183 47.6359 64.1995 57.5858 54.4901 61.4127C52.1503 62.353 48.6296 63.0965 46.6615 63.0965C44.1248 63.0965 41.3476 62.3967 39.5763 61.3252L38.8765 60.8878L39.62 59.9038C40.7572 58.4168 41.8287 56.4924 44.4747 51.1567C47.4487 45.143 49.2419 42.3658 51.7348 39.9166C53.1562 38.4952 54.0528 37.8173 55.4742 37.0956C58.4701 35.5649 61.5753 33.4 63.4778 31.4975C66.1238 28.8733 67.3703 27.0583 70.4318 21.3289C71.3721 19.5795 72.4874 17.5239 72.9247 16.7804L73.7338 15.3809L74.871 16.6055C75.5051 17.2834 76.358 18.5517 76.7735 19.4264Z" fill="black"/>
<path d="M0.367219 19.1892C0.270329 19.4801 -0.031622 22.3177 0.00270485 25.6893C0.0264225 28.0188 0.35191 31.1196 0.438953 31.6999C0.737183 33.7099 0.950205 34.278 1.39755 34.278C1.9088 34.278 1.95141 33.8847 1.67448 31.7436C1.58899 31.0616 1.02873 29.064 0.988041 26.6773C0.937489 23.7118 1.42437 20.2619 1.51524 19.3532C1.67925 17.7131 0.531054 18.6971 0.367219 19.1892Z" fill="black"/>
<path d="M0.697208 30.8336C-0.614704 31.0796 2.79297 43.774 5.27122 46.4473C7.74948 49.1206 6.36461 46.8628 6.34275 46.2505C6.34275 46.0318 8.24156 48.3005 5.53364 44.2168C2.82571 40.133 2.00912 30.5876 0.697208 30.8336Z" fill="black"/>
</svg>
