<svg width="13" height="13" viewBox="0 0 13 13" fill="none" xmlns="http://www.w3.org/2000/svg">
<path d="M9.704 2.576C9.5616 2.576 9.42239 2.61823 9.30399 2.69734C9.18559 2.77646 9.0933 2.88891 9.03881 3.02047C8.98431 3.15203 8.97005 3.2968 8.99784 3.43647C9.02562 3.57613 9.09419 3.70442 9.19488 3.80512C9.29558 3.90581 9.42387 3.97438 9.56354 4.00217C9.7032 4.02995 9.84797 4.01569 9.97953 3.96119C10.1111 3.9067 10.2235 3.81441 10.3027 3.69601C10.3818 3.57761 10.424 3.4384 10.424 3.296C10.424 3.10504 10.3481 2.92191 10.2131 2.78688C10.0781 2.65186 9.89496 2.576 9.704 2.576ZM12.464 4.028C12.4523 3.53018 12.3591 3.03764 12.188 2.57C12.0354 2.16988 11.798 1.80757 11.492 1.508C11.1949 1.20046 10.8317 0.964506 10.43 0.818C9.96359 0.641696 9.47051 0.546326 8.972 0.536C8.336 0.5 8.132 0.5 6.5 0.5C4.868 0.5 4.664 0.5 4.028 0.536C3.52949 0.546326 3.03641 0.641696 2.57 0.818C2.16901 0.965989 1.80616 1.20174 1.508 1.508C1.20046 1.80511 0.964506 2.16826 0.818 2.57C0.641696 3.03641 0.546326 3.52949 0.536 4.028C0.5 4.664 0.5 4.868 0.5 6.5C0.5 8.132 0.5 8.336 0.536 8.972C0.546326 9.47051 0.641696 9.96359 0.818 10.43C0.964506 10.8317 1.20046 11.1949 1.508 11.492C1.80616 11.7983 2.16901 12.034 2.57 12.182C3.03641 12.3583 3.52949 12.4537 4.028 12.464C4.664 12.5 4.868 12.5 6.5 12.5C8.132 12.5 8.336 12.5 8.972 12.464C9.47051 12.4537 9.96359 12.3583 10.43 12.182C10.8317 12.0355 11.1949 11.7995 11.492 11.492C11.7993 11.1935 12.037 10.8309 12.188 10.43C12.3591 9.96236 12.4523 9.46982 12.464 8.972C12.464 8.336 12.5 8.132 12.5 6.5C12.5 4.868 12.5 4.664 12.464 4.028ZM11.384 8.9C11.3796 9.28086 11.3107 9.65822 11.18 10.016C11.0842 10.2771 10.9303 10.5131 10.73 10.706C10.5354 10.9043 10.2999 11.0579 10.04 11.156C9.68222 11.2867 9.30486 11.3556 8.924 11.36C8.324 11.39 8.102 11.396 6.524 11.396C4.946 11.396 4.724 11.396 4.124 11.36C3.72853 11.3674 3.33476 11.3065 2.96 11.18C2.71147 11.0768 2.48681 10.9237 2.3 10.73C2.10085 10.5372 1.94891 10.3011 1.856 10.04C1.70951 9.67709 1.62827 9.29117 1.616 8.9C1.616 8.3 1.58 8.078 1.58 6.5C1.58 4.922 1.58 4.7 1.616 4.1C1.61869 3.71063 1.68977 3.32477 1.826 2.96C1.93163 2.70675 2.09376 2.481 2.3 2.3C2.48229 2.0937 2.70757 1.92986 2.96 1.82C3.32573 1.68803 3.7112 1.61905 4.1 1.616C4.7 1.616 4.922 1.58 6.5 1.58C8.078 1.58 8.3 1.58 8.9 1.616C9.28086 1.62037 9.65822 1.68935 10.016 1.82C10.2887 1.92119 10.5334 2.08571 10.73 2.3C10.9266 2.48431 11.0803 2.70964 11.18 2.96C11.3134 3.32536 11.3824 3.71107 11.384 4.1C11.414 4.7 11.42 4.922 11.42 6.5C11.42 8.078 11.414 8.3 11.384 8.9ZM6.5 3.422C5.89149 3.42319 5.29698 3.60472 4.79159 3.94365C4.28621 4.28259 3.89263 4.76372 3.66058 5.32625C3.42853 5.88879 3.36843 6.50748 3.48788 7.10416C3.60732 7.70084 3.90094 8.24872 4.33165 8.67859C4.76235 9.10845 5.31081 9.40101 5.90772 9.51929C6.50462 9.63757 7.1232 9.57626 7.68528 9.34312C8.24736 9.10998 8.72773 8.71546 9.06568 8.20942C9.40363 7.70338 9.584 7.10852 9.584 6.5C9.58479 6.09506 9.50552 5.69396 9.35074 5.31977C9.19597 4.94558 8.96873 4.60569 8.68212 4.31963C8.39551 4.03358 8.05517 3.80701 7.68068 3.65296C7.30619 3.49891 6.90493 3.42042 6.5 3.422ZM6.5 8.498C6.10483 8.498 5.71854 8.38082 5.38997 8.16128C5.0614 7.94173 4.80531 7.62969 4.65409 7.2646C4.50286 6.89952 4.4633 6.49778 4.54039 6.11021C4.61748 5.72264 4.80778 5.36663 5.0872 5.0872C5.36663 4.80778 5.72264 4.61748 6.11021 4.54039C6.49778 4.4633 6.89952 4.50286 7.2646 4.65409C7.62969 4.80531 7.94173 5.0614 8.16128 5.38997C8.38082 5.71854 8.498 6.10483 8.498 6.5C8.498 6.76238 8.44632 7.02219 8.34591 7.2646C8.2455 7.50701 8.09833 7.72727 7.9128 7.9128C7.72727 8.09833 7.50701 8.2455 7.2646 8.34591C7.02219 8.44632 6.76238 8.498 6.5 8.498Z" fill="black"/>
</svg>
