<svg width="120" height="17" viewBox="0 0 120 17" fill="none" xmlns="http://www.w3.org/2000/svg">
<g clip-path="url(#clip0_8_2)">
<mask id="mask0_8_2" style="mask-type:luminance" maskUnits="userSpaceOnUse" x="0" y="0" width="120" height="17">
<path d="M120 0H0V17H120V0Z" fill="white"/>
</mask>
<g mask="url(#mask0_8_2)">
<path d="M11.438 0.117188V2.78906H3.07273V7.00781H11.0408V9.7852H3.03768V14.1797H11.6016V16.875H0V0.117188H11.438Z" fill="black"/>
<path d="M14.1719 16.1719V13.3594C15.8466 13.9844 17.7393 14.2969 19.8501 14.2969C22.4126 14.2969 23.6939 13.4375 23.6939 11.7188C23.6939 10.4688 22.9072 9.8438 21.3339 9.8438H18.7168C15.2974 9.8438 13.5878 8.28125 13.5878 5.15625C13.5878 1.71875 16.0218 0 20.8899 0C22.7592 0 24.5312 0.273437 26.2058 0.820309V3.63281C24.5312 3.00781 22.7592 2.69531 20.8899 2.69531C18.0859 2.69531 16.6839 3.51563 16.6839 5.15625C16.6839 6.40625 17.3615 7.03125 18.7168 7.03125H21.3339C24.9713 7.03125 26.79 8.59375 26.79 11.7188C26.79 15.2344 24.4767 16.9922 19.8501 16.9922C17.7393 16.9922 15.8466 16.7188 14.1719 16.1719Z" fill="black"/>
<path d="M29.4188 16.875V0.117188H36.8961C40.3077 0.117188 42.0134 1.69141 42.0134 4.83984C42.0134 8.25391 39.6807 10.3203 35.0151 11.0391L34.5711 8.27344C37.3751 7.76563 38.7771 6.65234 38.7771 4.93359C38.7771 3.54297 38.0839 2.84766 36.6975 2.84766H32.5148V16.875H29.4188Z" fill="black"/>
<path d="M44.0697 16.8516V0.117188H51.6639C55.0755 0.117188 56.7812 1.61328 56.7812 4.60547C56.7812 6.62891 55.4532 8.30469 52.7972 9.6328L58.0898 16.875H54.1875L49.1052 9.5742V8.15625C52.065 7.64844 53.5449 6.49609 53.5449 4.69922C53.5449 3.46484 52.8517 2.84766 51.4653 2.84766H47.2242V16.8516H44.0697Z" fill="black"/>
<path d="M70.9999 0.117188V2.78906H62.6346V7.00781H70.6027V9.7852H62.5996V14.1797H71.1635V16.875H59.5619V0.117188H70.9999Z" fill="black"/>
<path d="M73.7338 16.1719V13.3594C75.4084 13.9844 77.3011 14.2969 79.4119 14.2969C81.9745 14.2969 83.2558 13.4375 83.2558 11.7188C83.2558 10.4688 82.4691 9.8438 80.8957 9.8438H78.2786C74.8593 9.8438 73.1496 8.28125 73.1496 5.15625C73.1496 1.71875 75.5837 0 80.4518 0C82.3211 0 84.0931 0.273437 85.7677 0.820309V3.63281C84.0931 3.00781 82.3211 2.69531 80.4518 2.69531C77.6477 2.69531 76.2457 3.51563 76.2457 5.15625C76.2457 6.40625 76.9234 7.03125 78.2786 7.03125H80.8957C84.5331 7.03125 86.3519 8.59375 86.3519 11.7188C86.3519 15.2344 84.0386 16.9922 79.4119 16.9922C77.3011 16.9922 75.4084 16.7188 73.7338 16.1719Z" fill="#E67E22"/>
<path d="M88.6885 16.1719V13.3594C90.3632 13.9844 92.2559 14.2969 94.3667 14.2969C96.9292 14.2969 98.2105 13.4375 98.2105 11.7188C98.2105 10.4688 97.4238 9.8438 95.8505 9.8438H93.2334C89.814 9.8438 88.1044 8.28125 88.1044 5.15625C88.1044 1.71875 90.5384 0 95.4065 0C97.2758 0 99.0478 0.273437 100.722 0.820309V3.63281C99.0478 3.00781 97.2758 2.69531 95.4065 2.69531C92.6025 2.69531 91.2005 3.51563 91.2005 5.15625C91.2005 6.40625 91.8781 7.03125 93.2334 7.03125H95.8505C99.4879 7.03125 101.307 8.59375 101.307 11.7188C101.307 15.2344 98.9933 16.9922 94.3667 16.9922C92.2559 16.9922 90.3632 16.7188 88.6885 16.1719Z" fill="#E67E22"/>
<path d="M106.564 8.44922C106.564 12.3477 108.289 14.2969 111.74 14.2969C115.105 14.2969 116.787 12.3477 116.787 8.44922C116.787 4.61328 115.105 2.69531 111.74 2.69531C108.289 2.69531 106.564 4.61328 106.564 8.44922ZM103.351 8.51953C103.351 2.83984 106.147 0 111.74 0C117.247 0 120 2.83984 120 8.51953C120 14.168 117.247 16.9922 111.74 16.9922C106.397 16.9922 103.6 14.168 103.351 8.51953Z" fill="black"/>
</g>
</g>
<defs>
<clipPath id="clip0_8_2">
<rect width="120" height="17" fill="white"/>
</clipPath>
</defs>
</svg>
