<svg width="66" height="65" viewBox="0 0 66 65" fill="none" xmlns="http://www.w3.org/2000/svg">
<path fill-rule="evenodd" clip-rule="evenodd" d="M0.565217 0H65.5652V65H0V56.5217H48.0435V16.9565H32.7826V23.1739H28.2609V27.6957H19.2174V23.1739H14.6957V16.9565H0.565217V0ZM15.8261 16.9565V22.0435H31.6522V16.9565H15.8261ZM20.3478 23.1739V26.5652H27.1304V23.1739H20.3478ZM1.69565 1.13043V15.8261H64.4348V1.13043H1.69565ZM64.4348 16.9565H49.1739V57.6522H1.13043V63.8696H64.4348V16.9565Z" fill="black"/>
<path fill-rule="evenodd" clip-rule="evenodd" d="M33.3478 39H13V45.7826C13 51.4015 17.555 55.9565 23.1739 55.9565C28.7928 55.9565 33.3478 51.4015 33.3478 45.7826V39ZM11.8696 37.8696V45.7826C11.8696 52.0258 16.9307 57.087 23.1739 57.087C29.4171 57.087 34.4783 52.0258 34.4783 45.7826V37.8696H11.8696Z" fill="black"/>
<path d="M34.2244 49.7926L38.8003 45.431C39.9155 44.368 39.9578 42.6022 38.8948 41.487C37.8318 40.3718 36.0661 40.3295 34.9509 41.3925L34.1709 42.1359L34.1709 40.5742C35.738 39.0805 38.2193 39.14 39.7131 40.7071C41.2068 42.2742 41.1474 44.7555 39.5802 46.2493L35.0043 50.6109C34.2739 51.3072 33.3448 51.666 32.4097 51.6919L32.6551 50.5404C33.2247 50.4677 33.7769 50.2192 34.2244 49.7926Z" fill="black"/>
</svg>
